<svg preserveAspectRatio="none" overflow="visible" style="display: block;" width="49" height="49" viewBox="0 0 49 49" fill="none" xmlns="http://www.w3.org/2000/svg">
<g id="Group 52">
<g id="Rectangle 40" filter="url(#filter0_dii_0_5)">
<rect x="2" y="2" width="29" height="29" rx="5" fill="#ED8B8D"/>
<rect x="2.25" y="2.25" width="28.5" height="28.5" rx="4.75" stroke="#D9D9D9" stroke-width="0.5"/>
</g>
<path id="Vector" d="M15.8072 20.6599L9.28696 12.972C9.10322 12.7554 9 12.4616 9 12.1552C9 11.8488 9.10322 11.555 9.28696 11.3383C9.4707 11.1217 9.71989 11 9.97974 11C10.2396 11 10.4888 11.1217 10.6725 11.3383L16.4992 18.2103L22.3275 11.3403C22.4185 11.233 22.5265 11.1479 22.6453 11.0899C22.7642 11.0318 22.8916 11.0019 23.0203 11.0019C23.1489 11.0019 23.2763 11.0318 23.3952 11.0899C23.5141 11.1479 23.6221 11.233 23.713 11.3403C23.804 11.4475 23.8762 11.5749 23.9254 11.715C23.9747 11.8552 24 12.0054 24 12.1571C24 12.3088 23.9747 12.459 23.9254 12.5992C23.8762 12.7393 23.804 12.8667 23.713 12.9739L17.1928 20.6618C17.1018 20.7692 16.9938 20.8543 16.8748 20.9124C16.7559 20.9704 16.6284 21.0002 16.4997 21C16.3709 20.9998 16.2435 20.9697 16.1247 20.9113C16.0059 20.8529 15.898 20.7675 15.8072 20.6599Z" fill="#1A1A1A"/>
</g>
<defs>
<filter id="filter0_dii_0_5" x="-8" y="-8" width="67" height="67" filterUnits="userSpaceOnUse" color-interpolation-filters="sRGB">
<feFlood flood-opacity="0" result="BackgroundImageFix"/>
<feColorMatrix in="SourceAlpha" type="matrix" values="0 0 0 0 0 0 0 0 0 0 0 0 0 0 0 0 0 0 127 0" result="hardAlpha"/>
<feOffset dx="8" dy="8"/>
<feGaussianBlur stdDeviation="5"/>
<feComposite in2="hardAlpha" operator="out"/>
<feColorMatrix type="matrix" values="0 0 0 0 0 0 0 0 0 0 0 0 0 0 0 0 0 0 0.04 0"/>
<feBlend mode="normal" in2="BackgroundImageFix" result="effect1_dropShadow_0_5"/>
<feBlend mode="normal" in="SourceGraphic" in2="effect1_dropShadow_0_5" result="shape"/>
<feColorMatrix in="SourceAlpha" type="matrix" values="0 0 0 0 0 0 0 0 0 0 0 0 0 0 0 0 0 0 127 0" result="hardAlpha"/>
<feOffset dx="28" dy="28"/>
<feGaussianBlur stdDeviation="27"/>
<feComposite in2="hardAlpha" operator="arithmetic" k2="-1" k3="1"/>
<feColorMatrix type="matrix" values="0 0 0 0 0 0 0 0 0 0 0 0 0 0 0 0 0 0 0.16 0"/>
<feBlend mode="normal" in2="shape" result="effect2_innerShadow_0_5"/>
<feColorMatrix in="SourceAlpha" type="matrix" values="0 0 0 0 0 0 0 0 0 0 0 0 0 0 0 0 0 0 127 0" result="hardAlpha"/>
<feOffset dx="-10" dy="-10"/>
<feGaussianBlur stdDeviation="23"/>
<feComposite in2="hardAlpha" operator="arithmetic" k2="-1" k3="1"/>
<feColorMatrix type="matrix" values="0 0 0 0 0.941176 0 0 0 0 0.619608 0 0 0 0 0.619608 0 0 0 1 0"/>
<feBlend mode="normal" in2="effect2_innerShadow_0_5" result="effect3_innerShadow_0_5"/>
</filter>
</defs>
</svg>
