<svg xmlns="http://www.w3.org/2000/svg" viewBox="0 0 300 400">
  <defs>
    <linearGradient id="arte" x1="0" y1="0" x2="1" y2="1">
      <stop offset="0" stop-color="#ffe9c2"/>
      <stop offset="1" stop-color="#a8772a"/>
    </linearGradient>
    <linearGradient id="brilho" x1="0" y1="0" x2="1" y2="1">
      <stop offset="0" stop-color="#fff" stop-opacity=".35"/>
      <stop offset=".5" stop-color="#fff" stop-opacity="0"/>
    </linearGradient>
  </defs>
  <rect width="300" height="400" rx="18" fill="#e3ad4c"/>
  <rect x="12" y="12" width="276" height="376" rx="12" fill="#ffe9c2" opacity=".55"/>
  <rect x="24" y="24" width="252" height="30" rx="8" fill="#fff" opacity=".85"/>
  <rect x="36" y="35" width="120" height="8" rx="4" fill="#a8772a" opacity=".7"/>
  <circle cx="258" cy="39" r="9" fill="#a8772a" opacity=".7"/>
  <rect x="24" y="64" width="252" height="176" rx="8" fill="url(#arte)"/>
  <g transform="translate(150 152)" fill="#fff" opacity=".9"><path d="M8-58 -34 6h28l-10 52 44-66H0z"/></g>
  <rect x="24" y="250" width="252" height="118" rx="8" fill="#fff" opacity=".85"/>
  <rect x="38" y="266" width="170" height="8" rx="4" fill="#a8772a" opacity=".55"/>
  <rect x="38" y="284" width="210" height="6" rx="3" fill="#a8772a" opacity=".3"/>
  <rect x="38" y="298" width="190" height="6" rx="3" fill="#a8772a" opacity=".3"/>
  <rect x="38" y="318" width="150" height="8" rx="4" fill="#a8772a" opacity=".55"/>
  <rect x="38" y="336" width="200" height="6" rx="3" fill="#a8772a" opacity=".3"/>
  <rect x="38" y="350" width="120" height="6" rx="3" fill="#a8772a" opacity=".3"/>
  <rect width="300" height="400" rx="18" fill="url(#brilho)"/>
</svg>
